# xmcd
#
# Track frame offsets: 
#        150
#        27537
#        57427
#        86365
#        104680
#        124375
#        147770
#        162887
#
# Disc length: 2445 seconds
#
# Revision: 1
# Processed by: cddbd v1.5PL3 Copyright (c) Steve Scherf et al.
# Submitted via: ExactAudioCopy v0.95a4
#
DISCID=6e098b08
DTITLE=Tátrai Band - Utazás az ismeretlenbe I.
DYEAR=1994
DGENRE=Blues
TTITLE0=Utazás az ismeretlenbe
TTITLE1=Ördögi szimpátia
TTITLE2=Valahol, valamikor
TTITLE3=A Földön kívül
TTITLE4=Álmatlan éjszaka
TTITLE5=Képzelt szerelem
TTITLE6=Adhatsz még egy kávét
TTITLE7=Hívlak
EXTD=YEAR: 1994 ID3G: 0
EXTT0=
EXTT1=
EXTT2=
EXTT3=
EXTT4=
EXTT5=
EXTT6=
EXTT7=
PLAYORDER=
